<svg width="34" height="16" viewBox="0 0 34 16" fill="none" xmlns="http://www.w3.org/2000/svg">
<rect x="2.05103" y="0.620039" width="31.8722" height="7.2" rx="3.6" transform="rotate(12.6154 2.05103 0.620039)" fill="#000050" stroke="white" stroke-width="0.8"/>
<path d="M7.6487 5.18964L6.88977 5.01978C6.89789 4.91849 6.8891 4.82495 6.86343 4.73914C6.83801 4.65218 6.79788 4.57406 6.74303 4.50477C6.68818 4.43549 6.6201 4.37658 6.53877 4.32805C6.4586 4.27979 6.36768 4.24428 6.26603 4.22153C6.08237 4.18042 5.91217 4.19024 5.75544 4.25099C5.59897 4.31059 5.4638 4.41862 5.34994 4.57508C5.23633 4.73039 5.152 4.93107 5.09693 5.17711C5.04031 5.43009 5.03028 5.65103 5.06685 5.83995C5.10457 6.02913 5.18175 6.18287 5.29841 6.30117C5.41507 6.41946 5.56292 6.49865 5.74197 6.53872C5.84246 6.56121 5.93843 6.56874 6.02985 6.5613C6.12243 6.55412 6.20791 6.53262 6.28628 6.49679C6.36491 6.4598 6.43445 6.40926 6.49489 6.34515C6.55649 6.28131 6.60655 6.20396 6.64508 6.11312L7.40322 6.28644C7.34713 6.44492 7.26288 6.59103 7.15046 6.72477C7.03946 6.85762 6.9048 6.96879 6.74649 7.0583C6.58959 7.14691 6.4127 7.20557 6.21584 7.23429C6.02038 7.26211 5.80887 7.25056 5.58131 7.19963C5.26481 7.12879 4.99783 6.99383 4.78037 6.79476C4.56408 6.59594 4.41411 6.34464 4.33047 6.04087C4.24799 5.73735 4.24992 5.39269 4.33627 5.00687C4.42288 4.6199 4.56934 4.30698 4.77564 4.06809C4.98194 3.82921 5.22574 3.66665 5.50705 3.58041C5.78862 3.49302 6.08534 3.48422 6.39723 3.55402C6.60285 3.60004 6.78698 3.67158 6.94963 3.76863C7.11344 3.86594 7.25109 3.9853 7.36258 4.1267C7.47432 4.26694 7.5551 4.42633 7.6049 4.60487C7.65586 4.78367 7.67046 4.97859 7.6487 5.18964ZM11.3286 6.57181C11.242 6.95878 11.095 7.27158 10.8875 7.5102C10.6812 7.74909 10.4361 7.91197 10.1522 7.99884C9.86977 8.08482 9.57202 8.09278 9.25897 8.02272C8.94362 7.95214 8.67664 7.81719 8.45804 7.61785C8.23943 7.41851 8.08773 7.16683 8.00294 6.86279C7.91814 6.55876 7.91892 6.21384 8.00527 5.82802C8.09188 5.44105 8.23833 5.12813 8.44463 4.88925C8.65094 4.65036 8.89532 4.48793 9.17778 4.40195C9.4605 4.31482 9.75954 4.30654 10.0749 4.37712C10.3879 4.44718 10.6538 4.58188 10.8724 4.78121C11.0924 4.97966 11.2448 5.23089 11.3296 5.53492C11.4155 5.83921 11.4152 6.18484 11.3286 6.57181ZM10.5679 6.40157C10.624 6.15091 10.6338 5.93112 10.5972 5.7422C10.5618 5.55354 10.4865 5.39961 10.3713 5.28041C10.256 5.16122 10.1077 5.08133 9.92637 5.04074C9.74501 5.00015 9.5768 5.00921 9.42175 5.0679C9.26669 5.1266 9.13236 5.23361 9.01875 5.38892C8.9063 5.54449 8.82203 5.7476 8.76593 5.99827C8.70983 6.24893 8.69948 6.46859 8.73489 6.65725C8.77145 6.84617 8.84735 7.00023 8.9626 7.11942C9.07784 7.23862 9.22614 7.31851 9.4075 7.3591C9.58886 7.39969 9.75706 7.39063 9.91212 7.33193C10.0672 7.27324 10.2009 7.1661 10.3134 7.01053C10.427 6.85522 10.5118 6.65224 10.5679 6.40157ZM15.2496 5.5862L14.4554 9.13478L13.8073 8.98974L12.7634 6.41076L12.7374 6.40495L12.2375 8.6384L11.4873 8.47049L12.2815 4.92191L12.9399 5.06927L13.9721 7.6438L14.0033 7.65078L14.5028 5.41906L15.2496 5.5862ZM15.5959 6.31326L15.7343 5.69469L18.6487 6.34696L18.5103 6.96553L17.4239 6.72238L16.7681 9.65238L16.0265 9.48641L16.6823 6.55641L15.5959 6.31326ZM19.8789 6.62229L19.0847 10.1709L18.3345 10.0029L19.1287 6.45437L19.8789 6.62229ZM23.4643 7.42473L22.6701 10.9733L22.0221 10.8283L20.9781 8.24929L20.9521 8.24348L20.4523 10.4769L19.702 10.309L20.4962 6.76044L21.1546 6.9078L22.1869 9.48233L22.218 9.48931L22.7175 7.25759L23.4643 7.42473ZM26.2761 8.05402L27.0263 8.22194L26.5106 10.5264C26.4526 10.7852 26.3402 10.9978 26.1731 11.1642C26.0073 11.3308 25.8019 11.4437 25.5569 11.503C25.3123 11.561 25.0432 11.5572 24.7498 11.4915C24.4553 11.4256 24.2097 11.3142 24.0131 11.1574C23.8168 10.9995 23.6791 10.8098 23.6001 10.5883C23.5211 10.3668 23.5105 10.1267 23.5684 9.86796L24.0842 7.56346L24.8345 7.73138L24.333 9.97176C24.3028 10.1069 24.3054 10.2336 24.3407 10.3519C24.3773 10.4705 24.4431 10.572 24.5383 10.6563C24.6334 10.7407 24.7532 10.799 24.8976 10.8314C25.0431 10.8639 25.1763 10.8622 25.2972 10.8262C25.4192 10.7904 25.5214 10.7266 25.6039 10.6346C25.6875 10.543 25.7444 10.4296 25.7746 10.2944L26.2761 8.05402ZM26.8494 11.9087L27.6436 8.36009L30.0347 8.89525L29.8963 9.51382L28.2554 9.14658L28.0662 9.99214L29.584 10.3318L29.4456 10.9504L27.9277 10.6107L27.7381 11.458L29.3859 11.8268L29.2475 12.4454L26.8494 11.9087Z" fill="white"/>
</svg>
