<svg width="30" height="14" viewBox="0 0 30 14" fill="none" xmlns="http://www.w3.org/2000/svg">
<rect x="5.82331" y="1.32207" width="19.7096" height="7.2" rx="3.6" transform="rotate(12.6154 5.82331 1.32207)" fill="#000050" stroke="white" stroke-width="0.8"/>
<path d="M8.80406 7.72778L7.54612 7.44624L8.34032 3.89766L9.60866 4.18153C9.9656 4.26141 10.257 4.40122 10.4828 4.60096C10.7088 4.79954 10.8616 5.0466 10.941 5.34215C11.0215 5.63796 11.0206 5.97011 10.9381 6.33859C10.8554 6.70824 10.7144 7.01026 10.5152 7.24466C10.3171 7.47931 10.0722 7.6386 9.78049 7.72251C9.48994 7.80668 9.16447 7.80844 8.80406 7.72778ZM8.44025 6.97132L8.91675 7.07796C9.13853 7.1276 9.33388 7.13008 9.50278 7.0854C9.6731 7.03982 9.81499 6.94239 9.92846 6.79312C10.0433 6.64294 10.1304 6.43559 10.1896 6.17107C10.2483 5.90885 10.2575 5.68591 10.2174 5.50225C10.1784 5.31885 10.092 5.17094 9.95823 5.05852C9.82449 4.94611 9.64672 4.86508 9.42494 4.81544L8.94671 4.70841L8.44025 6.97132ZM14.754 7.19627C14.6674 7.58324 14.5204 7.89604 14.3129 8.13466C14.1066 8.37354 13.8616 8.53642 13.5777 8.6233C13.2952 8.70928 12.9975 8.71724 12.6844 8.64718C12.3691 8.5766 12.1021 8.44164 11.8835 8.24231C11.6649 8.04297 11.5132 7.79128 11.4284 7.48725C11.3436 7.18322 11.3444 6.8383 11.4307 6.45248C11.5173 6.06551 11.6638 5.75259 11.8701 5.5137C12.0764 5.27482 12.3208 5.11239 12.6032 5.02641C12.886 4.93927 13.185 4.931 13.5003 5.00157C13.8134 5.07164 14.0792 5.20634 14.2978 5.40567C14.5178 5.60411 14.6702 5.85535 14.755 6.15938C14.841 6.46367 14.8407 6.8093 14.754 7.19627ZM13.9934 7.02603C14.0495 6.77537 14.0593 6.55557 14.0227 6.36665C13.9873 6.17799 13.912 6.02407 13.7967 5.90487C13.6815 5.78568 13.5332 5.70579 13.3518 5.6652C13.1705 5.62461 13.0023 5.63366 12.8472 5.69236C12.6921 5.75106 12.5578 5.85806 12.4442 6.01337C12.3318 6.16894 12.2475 6.37206 12.1914 6.62272C12.1353 6.87339 12.1249 7.09305 12.1603 7.28171C12.1969 7.47063 12.2728 7.62469 12.388 7.74388C12.5033 7.86308 12.6516 7.94297 12.8329 7.98356C13.0143 8.02414 13.1825 8.01509 13.3376 7.95639C13.4926 7.8977 13.6264 7.79056 13.7388 7.63499C13.8524 7.47968 13.9373 7.27669 13.9934 7.02603ZM18.675 6.21066L17.8808 9.75923L17.2328 9.6142L16.1888 7.03522L16.1628 7.0294L15.663 9.26286L14.9127 9.09494L15.7069 5.54637L16.3653 5.69373L17.3976 8.26826L17.4288 8.27524L17.9282 6.04352L18.675 6.21066ZM18.5007 9.89797L19.2949 6.34939L21.686 6.88455L21.5476 7.50312L19.9067 7.13588L19.7175 7.98144L21.2353 8.32115L21.0969 8.93972L19.579 8.60002L19.3894 9.44731L21.0372 9.8161L20.8988 10.4347L18.5007 9.89797Z" fill="white"/>
</svg>
