<svg width="95" height="83" viewBox="0 0 95 83" fill="none" xmlns="http://www.w3.org/2000/svg">
<path d="M8.05695 80.2392C7.26072 80.2422 6.47177 80.0872 5.73557 79.7832C4.99937 79.4792 4.33049 79.0322 3.76746 78.4679C3.20443 77.9036 2.75839 77.2333 2.45506 76.4954C2.15172 75.7576 1.99708 74.9669 2.00004 74.1689V8.51993C2.00004 6.79074 2.68545 5.13237 3.90548 3.90964C5.12551 2.68692 6.78023 2 8.50561 2H85.6751C87.3708 2 88.997 2.67508 90.196 3.87672C91.395 5.07836 92.0686 6.70814 92.0686 8.40752V73.7193C92.0686 75.4485 91.3831 77.1069 90.1631 78.3296C88.9431 79.5523 87.2884 80.2392 85.563 80.2392H8.05695Z" stroke="#000050" stroke-width="4" stroke-linecap="round" stroke-linejoin="round"/>
<path d="M91.4404 20.0986H2" stroke="#000050" stroke-width="4" stroke-linecap="round" stroke-linejoin="round"/>
<path d="M65.1484 38.1973L77.1501 50.2254L65.1484 62.2536" stroke="#000050" stroke-width="4" stroke-linecap="round" stroke-linejoin="round"/>
<path d="M29.0329 38.1973L17.0312 50.2254L29.0329 62.2536" stroke="#000050" stroke-width="4" stroke-linecap="round" stroke-linejoin="round"/>
<path d="M53.147 38.1973L41.0332 62.2536" stroke="#000050" stroke-width="4" stroke-linecap="round" stroke-linejoin="round"/>
</svg>
