<svg width="117" height="85" viewBox="0 0 117 85" fill="none" xmlns="http://www.w3.org/2000/svg">
<path d="M92.3809 20.0684C96.4551 23.3647 98.6025 26.9143 99.0713 30.8174L99.3281 32.9512L101.438 32.543C103.569 32.1302 106.046 32.0728 108.292 32.3369C110.598 32.6081 112.376 33.1841 113.292 33.8193L113.337 33.8506L113.384 33.8799L114.274 34.4277C113.764 35.56 113.596 35.9136 113.51 36.0928C109.822 43.4492 102.623 43.6407 98.7031 43.5273L97.3057 43.4863L96.7881 44.7842C87.1397 68.9509 66.6505 82.3203 38.6777 82.3203C25.8641 82.3202 16.4109 78.2641 10.0791 70.5049L10.0762 70.501L9.68555 70.0156C5.7179 64.9804 3.67927 59.2246 2.72559 54.1162C1.84615 49.4054 1.90926 45.3458 2.1748 43.0762H79.7891C84.2887 43.0762 87.8256 41.8509 89.6914 40.7412L91.4863 39.6738L90.3418 37.9268C88.9431 35.7917 88.457 33.3045 88.3623 31.9258L88.3613 31.9189L88.3369 31.5244C88.1242 27.4572 89.1396 23.2906 91.001 20.376L91.5898 19.4961L92.3809 20.0684ZM76.1445 29.3838V36.7939H68.085V29.3838H76.1445ZM61.8926 29.3838V36.7939H53.834V29.3838H61.8926ZM47.6406 29.3838V36.7939H39.582V29.3838H47.6406ZM33.3896 29.3838V36.7939H25.3301V29.3838H33.3896ZM19.1377 29.3838V36.7939H11.0781V29.3838H19.1377ZM61.8926 15.6924V23.1025H53.834V15.6924H61.8926ZM47.6406 15.6924V23.1025H39.582V15.6924H47.6406ZM33.3896 15.6924V23.1025H25.3301V15.6924H33.3896ZM61.8926 2V9.41016H53.834V2H61.8926Z" stroke="#000050" stroke-width="4"/>
</svg>
