<?xml version="1.0" encoding="UTF-8"?>
<svg id="Ebene_1" xmlns="http://www.w3.org/2000/svg" version="1.1" viewBox="0 0 118 113">
  <!-- Generator: Adobe Illustrator 29.0.0, SVG Export Plug-In . SVG Version: 2.1.0 Build 186)  -->
  <defs>
    <style>
      .st0 {
        fill: none;
        stroke: #000050;
        stroke-miterlimit: 10;
        stroke-width: 6px;
      }
    </style>
  </defs>
  <path class="st0" d="M12.6,22.4L77.3,3.4h.5c2.1-.6,4.2-.5,6.2.3h0s0,0,0,0c3.2,1.3,5.2,4.4,5.2,7.8v9.4"/>
  <path class="st0" d="M106.5,85.7v8.1c0,8.9-7.2,16.2-16.1,16.2H19.1c-8.9,0-16.1-7.2-16.1-16.2v-56.6c0-8.9,7.2-16.2,16.1-16.2h71.4c8.9,0,16.1,7.2,16.1,16.2v8.1"/>
  <path class="st0" d="M106.5,85.7c4.4,0,8-3.6,8-8.1v-24.3c0-4.5-3.6-8.1-8-8.1h-20.1c-11.1,0-20.1,9-20.1,20.2s9,20.2,20.1,20.2h20.1Z"/>
  <path class="st0" d="M86.4,59.5c3.2,0,5.9,2.7,5.9,5.9s-2.6,5.9-5.9,5.9-5.9-2.7-5.9-5.9,2.6-5.9,5.9-5.9Z"/>
</svg>